<?xml version="1.0" encoding="UTF-8"?>
<svg id="Layer_1" xmlns="http://www.w3.org/2000/svg" version="1.1" viewBox="0 0 128 128">
  <!-- Generator: Adobe Illustrator 29.4.0, SVG Export Plug-In . SVG Version: 2.1.0 Build 152)  -->
  <defs>
    <style>
      .st0 {
        fill: #fff;
      }
    </style>
  </defs>
  <path id="path2" class="st0" d="M56.72,0s-21.38,8.41-31.51,13.78C16.3,18.51-.38,29.93-.38,29.93c0,0,4.21,11.39,6.69,16.94,2.27,5.09,5.28,9.84,7.48,14.97,2.43,5.65,4.44,11.47,6.3,17.33,2.11,6.62,2.64,13.77,5.52,20.08,3.14,6.89,7.92,12.95,12.6,18.9,2.75,3.51,9.06,9.85,9.06,9.85l.39-16.15h32.67l.39,16.15s6.3-6.35,9.06-9.85c4.68-5.96,9.46-12.01,12.61-18.9,2.88-6.32,3.4-13.47,5.51-20.08,1.87-5.86,3.87-11.68,6.3-17.33,2.2-5.12,5.21-9.88,7.48-14.97,2.48-5.54,6.7-16.94,6.7-16.94,0,0-16.69-11.42-25.6-16.15-10.13-5.37-31.51-13.78-31.51-13.78,0,0,15.36,22.19,18.12,35.05.5,2.31,1.04,5.21-.39,7.09-2.02,2.64-6.18,3.7-9.45,3.15-3.6-.61-6.53-3.74-8.66-6.7-1.63-2.26-2.75-7.88-2.75-7.88h-8.25s-1.13,5.62-2.76,7.88c-2.13,2.96-5.07,6.09-8.66,6.7-3.27.56-7.44-.51-9.45-3.15-1.44-1.88-.89-4.78-.39-7.09C41.36,22.19,56.72,0,56.72,0ZM64,57.43c2.57,0,5.84,2.84,5.84,5.83s-3.27,5.83-5.84,5.83-5.85-2.84-5.85-5.83,3.28-5.83,5.85-5.83ZM48.42,72.99c2.98,0,5.83,3.28,5.83,5.85s-2.84,5.85-5.83,5.85-5.83-3.28-5.83-5.85,2.84-5.85,5.83-5.85ZM79.57,72.99c2.98,0,5.83,3.28,5.83,5.85s-2.84,5.85-5.83,5.85-5.83-3.28-5.83-5.85,2.84-5.85,5.83-5.85ZM64,88.59c2.57,0,5.84,2.84,5.84,5.82s-3.27,5.83-5.84,5.83-5.85-2.84-5.85-5.83,3.28-5.82,5.85-5.82Z"/>
</svg>