<?xml version="1.0" encoding="UTF-8"?>
<svg id="Layer_1" xmlns="http://www.w3.org/2000/svg" version="1.1" viewBox="0 0 128 128">
  <!-- Generator: Adobe Illustrator 29.4.0, SVG Export Plug-In . SVG Version: 2.1.0 Build 152)  -->
  <defs>
    <style>
      .st0 {
        fill: #fff;
      }
    </style>
  </defs>
  <path id="path5" class="st0" d="M63.73,1.29c-1.46-.01-2.91.38-3.93,1.22-3.66,3,.8,10.73-2.68,13.94-1.19,1.1-3.64-.56-4.83.54-2.8,2.59-2.14,11.26-2.14,11.01h-6.96c0,.25-3.25-9.77-6.97-13.16-3.85-3.51-14.48-5.89-14.48-5.89,0,0,3.54,16.89,2.14,25.2-.29,1.74-2.14,4.82-2.14,4.82,0,0-9.92-1.55-14.49,0-2.78.94-6.96,5.37-6.96,5.37,0,0,16.5,10.5,20.91,18.76,3.57,6.69-.12,15.71,3.21,22.52,8.28,16.9,20.29,33.09,37,40.55,1.55.69,3.55.72,5.11.04,16.73-7.25,28.74-23.37,37.06-40.21,3.36-6.8-.35-15.83,3.22-22.52,4.41-8.26,20.9-18.77,20.9-18.77,0,0-4.19-4.41-6.96-5.36-4.57-1.55-14.48,0-14.48,0,0,0-1.86-3.09-2.15-4.82-1.4-8.31,2.15-25.21,2.15-25.21,0,0-10.63,2.39-14.49,5.9-3.72,3.39-6.96,13.4-6.96,12.78h-6.97c0,.63.66-8.04-2.14-10.63-1.19-1.1-3.62.54-4.82-.54-3.63-3.25.59-11.21-3.2-14.27-1.02-.82-2.49-1.25-3.95-1.27ZM39.29,58.41s11.51,5.93,15.15,10.99c2.35,3.27,3.62,11.53,3.62,11.53,0,0-2.29.77-3.48.8-3.53.11-7.51.21-10.46-1.74-4.86-3.22-9.45-8.93-9.39-14.75.03-2.74,4.55-6.83,4.55-6.83ZM88.62,58.45s4.52,4.1,4.55,6.84c.06,5.83-4.53,11.53-9.39,14.74-2.95,1.95-6.93,1.85-10.46,1.74-1.19-.04-3.48-.8-3.48-.8,0,0,1.26-8.26,3.62-11.53,3.64-5.06,15.15-10.99,15.15-10.99Z"/>
</svg>