<?xml version="1.0" encoding="UTF-8"?>
<svg xmlns="http://www.w3.org/2000/svg" version="1.1" viewBox="0 0 512 512">
  <defs>
    <style>
      .cls-1 {
        fill: #fff;
      }

      .cls-2 {
        fill: none;
        stroke: #fff;
        stroke-miterlimit: 10;
        stroke-width: 54px;
      }
    </style>
  </defs>
  <!-- Generator: Adobe Illustrator 28.7.1, SVG Export Plug-In . SVG Version: 1.2.0 Build 142)  -->
  <g>
    <g id="Layer_1">
      <g>
        <path class="cls-2" d="M62.2,260.9c.6-48.3,14.5-87.3,41.5-121.5,29.3-37,67.2-61,113.6-69.9,63.9-12.3,120.8,3.4,169.4,46.9,33.5,30,53.5,67.7,60.7,111.8,6.6,40.6-.8,79.3-20.2,115.4-24.9,46.3-62.8,77.6-112.8,94-16.7,5.5-33.9,8.2-51.5,8.7-55.2,1.6-102.8-16.8-142.4-55-29.6-28.5-48.1-63.4-55.2-104-1.8-10.2-2.5-20.6-3.1-26.4Z"/>
        <path d="M152,366c.1.4.3.8.4,1.3,4.3,0,8.6,0,12.8,0,56.6,0,113.2,0,169.8,0,3.5,0,5-.8,5.9-4.4,6.1-24.9,12.6-49.8,18.9-74.7.3-1.3.5-2.7,1-5.4-2.4,1.7-3.8,2.5-5.1,3.6-10.4,8.6-21,16.9-30.9,26-5.3,4.8-11.1,5.9-17.7,6.5-13.4,1.2-26.7,2.8-40,4-7,.6-14.1,1.5-21.1.8-6.8-.7-13.4-3.2-20.2-4.8-3-.7-4.2-2-4.2-5.3,0-45.9,0-91.8,0-137.6,0-1.8.9-4,2.2-5.2,6.8-6.9,13.8-13.6,20.7-20.4,1.6-1.6,3-3.3,5.1-5.5h-98.3c2,2.2,3.4,3.7,4.8,5.1,5.1,5,9.9,10.2,15.3,14.7,6.1,5.1,8.2,10.8,8.1,19-.5,51.8-.3,103.6-.1,155.4,0,4.9-1.5,7.9-5.5,10.7-7.4,5.2-14.6,10.8-21.8,16.3Z"/>
        <path class="cls-1" d="M152,366c7.2-5.5,14.4-11.1,21.8-16.3,3.9-2.7,5.5-5.7,5.5-10.7-.2-51.8-.4-103.6.1-155.4,0-8.2-2-13.9-8.1-19-5.4-4.5-10.3-9.8-15.3-14.7-1.4-1.4-2.7-2.9-4.8-5.1h98.3c-2,2.2-3.5,3.9-5.1,5.5-6.9,6.8-13.9,13.5-20.7,20.4-1.2,1.3-2.2,3.5-2.2,5.2,0,45.9,0,91.8,0,137.6,0,3.3,1.2,4.6,4.2,5.3,6.8,1.6,13.4,4.1,20.2,4.8,6.9.7,14.1-.2,21.1-.8,13.4-1.2,26.7-2.8,40-4,6.5-.6,12.4-1.6,17.7-6.5,9.9-9.1,20.5-17.4,30.9-26,1.3-1,2.7-1.9,5.1-3.6-.5,2.6-.7,4-1,5.4-6.3,24.9-12.7,49.8-18.9,74.7-.9,3.6-2.4,4.4-5.9,4.4-56.6-.1-113.2,0-169.8,0-4.3,0-8.6,0-12.8,0-.1-.4-.3-.8-.4-1.3Z"/>
      </g>
    </g>
  </g>
</svg>