<?xml version="1.0" encoding="UTF-8"?>
<svg xmlns="http://www.w3.org/2000/svg" version="1.1" viewBox="0 0 512 512">
  <defs>
    <style>
      .cls-1 {
        fill: #fff;
      }
    </style>
  </defs>
  <!-- Generator: Adobe Illustrator 28.7.1, SVG Export Plug-In . SVG Version: 1.2.0 Build 142)  -->
  <g>
    <g id="Layer_1">
      <path id="path2-9" class="cls-1" d="M290.1,19.2c-20.9-8.8-47.3-8.4-68.1.5-27.3,11.7-35,51.1-61.7,64.1-26.9,13.2-62.5-3.3-89.6,9.7-23.6,11.4-43.6,32.4-55.7,55.7C4.3,170,.6,194.9,3,218.2c1.3,13,11.5,23.6,14.5,36.3,3.5,14.7,3.7,44.7,3.7,44.7l-9.7,28.9,42.3,25.5s1.3,31.3,8.4,44.7c13.6,25.5,38.1,44,61.7,60.5,21.2,14.8,44.9,28.2,70.2,33.9,40.3,9.2,83.5,8.6,123.8-.7,25.3-5.9,48.9-18.9,70.2-33.9,23.6-16.5,48.2-35.2,61.7-60.5,7.1-13.4,8.4-44.7,8.4-44.7l42.3-25.3-9.7-29.1s.2-30.2,3.7-44.7c2.9-12.6,13.2-23.3,14.5-36.3,2.4-23.3-1.3-48.2-12.1-68.9-12.1-23.3-32.1-44.3-55.7-55.7-27.1-13-62.6,3.5-89.6-9.7-26.6-13-34.3-52.6-61.7-64.1l.2.2ZM252,154.2c35.4,0,67.2,44.3,70.3,79.7.9,10.8-17,27.8-17,27.8,0,0-6.6,25.5,0,35.2,9,13.2,35.4,4,44.7,16.9,8.8,12.1,9.7,31.7,2.4,44.7-13,23.3-44.3,45.6-70.2,38.7-19.1-5.1-10.6-50.6-30.2-50.6s-11.4,45.8-30.4,50.9c-25.8,7-57.2-15.4-70.2-38.7-7.3-13-6.4-32.6,2.4-44.7,9.3-12.8,35.7-3.8,44.7-16.9,6.6-9.7,0-35.2,0-35.2,0,0-18-17-16.9-27.8,3.1-35.4,34.8-79.9,70.3-79.9v-.2Z"/>
    </g>
  </g>
</svg>