<?xml version="1.0" encoding="UTF-8"?>
<svg id="Layer_1" xmlns="http://www.w3.org/2000/svg" viewBox="0 0 325.49 344.77">
  <defs>
    <style>
      .cls-1 {
        fill: #fff;
      }
    </style>
  </defs>
  <path id="path1" class="cls-1" d="M35.68,296.8s31.19-14.81,46.58-10.72c20.41,5.43,30.16,29.13,46,42.88,6.32,5.49,19.55,15.8,19.55,15.8,0,0,.15-19.46-2.3-28.78-5.78-22.01-16.87-42.56-28.75-62.07-8.77-14.4-17.98-29.25-31.05-40.06-12.06-9.98-26.25-20.26-41.98-21.44-11.3-.85-23.86,3.19-32.2,10.72C4.45,209.52.41,219.66.03,229.09c-.54,13.31,6.93,26,13.23,37.81,5.85,10.96,22.43,29.91,22.43,29.91Z"/>
  <path id="path2" class="cls-1" d="M186.91,336.87s3.81-28.59,8.05-42.32c6.22-20.16,14.03-40.19,25.3-58.12,6.86-10.9,14.61-21.99,25.3-29.34,12.22-8.4,27.06-15,41.98-15.24,9.7-.16,20.58,2.46,27.6,9.03,4.61,4.31,5.35,11.43,6.9,17.49,2.3,9.01,3.44,18.36,3.45,27.65,0,4.74-1.73,14.11-1.73,14.11,0,0-12.07-20.13-21.28-27.08-6.26-4.73-13.95-9.1-21.85-9.03-11.33.11-22.36,6.41-31.05,13.54-9.95,8.17-16.21,20.14-21.85,31.6-4.46,9.05-9.2,28.78-9.2,28.78,0,0,17.97-18.96,28.18-27.08,7.51-5.98,15.19-12.21,24.15-15.8,6.68-2.68,14.53-6.47,21.28-3.95,8.81,3.3,14.76,13.08,17.25,22.01,1.68,6.03-2.3,18.62-2.3,18.62,0,0-15.93-8.82-24.73-9.03-8.24-.2-16.66,2.93-23.58,7.34-7.74,4.93-18.4,20.31-18.4,20.31,0,0-20,.39-28.75,4.51-10.03,4.73-24.73,22.01-24.73,22.01Z"/>
  <path id="path3" class="cls-1" d="M158.73,281.57c-4.66-23.21-21.94-42.23-35.08-62.07-9.02-13.63-18.31-27.32-29.9-38.93-10.41-10.43-24.3-17.02-35.08-27.08-4.23-3.95-11.5-12.98-11.5-12.98,0,0,7.29-30.09,10.93-45.14,1.73-7.15,5.18-21.44,5.18-21.44,0,0,8.5,13.22,15.53,15.24,6.03,1.73,13.45-.17,18.4-3.95,5.07-3.87,6.34-11.03,8.63-16.93,2.89-7.46,1.37-16.8,6.33-23.13,5.12-6.55,14.45-8.47,21.85-12.41,12.28-6.54,25.17-11.94,37.38-18.62,8.04-4.4,23.58-14.11,23.58-14.11,0,0-4.78,16.81-6.33,25.39-.91,5.03-1.73,15.24-1.73,15.24,0,0,21.28-1.17,31.05,2.26,10.37,3.63,19.24,10.98,27.03,18.62,9.44,9.26,16.63,20.65,23,32.16,5.62,10.16,8.76,21.47,13.23,32.16,3.78,9.05,11.5,27.08,11.5,27.08,0,0-14.26-1.19-20.7-3.95-8.92-3.83-23.58-16.93-23.58-16.93,0,0,2.42,23.9-2.3,34.42-2.57,5.72-7.44,10.93-13.23,13.54-9.24,4.18-20.63,4.21-30.48,1.69-13.84-3.53-25.6-13.18-36.23-22.57-5.27-4.66-11-9.75-13.23-16.36-1.93-5.72.58-18.06.58-18.06,0,0,14.15,8.16,21.28,6.21,7.97-2.19,16.66-9.93,16.68-18.06.01-7.59-8.23-14.39-15.53-16.93-10.43-3.63-22.87.25-32.78,5.08-5.95,2.9-10.41,8.31-14.38,13.54-5.02,6.61-12.06,13.78-11.5,22.01,1.12,16.45,18.64,27.46,28.75,40.63,8.94,11.64,15.37,26.48,28.18,33.86,7.55,4.35,25.88,4.51,25.88,4.51,0,0-6.17,30.01-13.23,43.45-4,7.63-10.17,14.01-16.1,20.31-4.05,4.3-13.23,11.85-13.23,11.85,0,0,1.78-6.43,1.15-9.59Z"/>
</svg>