<?xml version="1.0" encoding="UTF-8"?>
<svg id="Layer_1" xmlns="http://www.w3.org/2000/svg" viewBox="0 0 325.24 347.3">
  <defs>
    <style>
      .cls-1 {
        fill: #fff;
      }
    </style>
  </defs>
  <path class="cls-1" d="M206.61,129.94c10.8-36.6-21.98-83.79-54.48-107.25C131.82,8.02,111.31,2.4,98.2,0c42.92,56.84,44.67,91.43,36.5,113.1-17.03,45.19-80.34,42.53-118.86,111.66-8.33,14.95-20.21,37.14-14.21,62.62,9.72,41.26,58.51,57.64,64.2,59.46-10.76-35.88-18.26-83.83,5.38-121.67,37.14-59.45,120.61-45.09,135.4-95.24Z"/>
  <path class="cls-1" d="M219.51,244.04c26.02-8.39,52.92-30.1,63.49-59.71,14.21-39.82-6.86-77.97-15.6-94.05-13.02-23.98-30.03-39.27-41.12-47.74,5.38,10.8,15.6,35.02,13.23,66.64-.87,11.63-2.93,39.07-21.97,61.91-8.48,10.17-27.65,20.2-65.74,39.76-34.81,17.87-51.74,24.88-58.5,43.14-3.53,9.51-3,18.61-1.96,24.92,6.35-6.44,16.99-15.82,32.18-22.82,37.62-17.33,59.93-.43,95.98-12.05Z"/>
  <path class="cls-1" d="M313.99,202.18c-21.24,62.03-45.66,76.23-61.33,79.54-18.5,3.9-53.21-1.39-56.85-1.96-14.77-2.3-27.58-5.75-45.37-1.96-13.62,2.9-20.66,8.02-22.96,9.8-11.8,9.15-16.11,21.46-17.64,26.89,9.48-4.73,20.4-8.67,32.72-10.7,61.29-10.14,110.94,34.26,120.89,43.52,8.53-1.9,25.57-7.01,39.63-21.9,16.53-17.51,18.88-38.15,21-53.49,4.41-31.88-4.69-57.46-10.08-69.73Z"/>
</svg>