<?xml version="1.0" encoding="UTF-8"?>
<svg id="Layer_1" xmlns="http://www.w3.org/2000/svg" viewBox="0 0 366.47 329.5">
  <defs>
    <style>
      .cls-1 {
        fill: #fff;
      }
    </style>
  </defs>
  <path class="cls-1" d="M250.06,0h-34.41c9.09,26.96,18.17,53.92,27.26,80.88h-38.73c-.54-12.1-1.07-24.2-1.61-36.3h-19.36v.04h-19.3c-.54,12.1-1.07,24.2-1.61,36.3h-38.73C132.65,53.96,141.74,27,150.82.04h-34.41C77.61,58.86,38.81,117.68,0,176.49c.2,11.5,2.24,38.72,20.5,65.89,24.3,36.17,60.44,47.14,70.29,49.79-5.9-4.38-23.03-18.27-30.02-43.2-4.97-17.73-2.5-32.8-.73-40.27,8.68,4.59,18.03,10.73,27.09,19.04,37.96,34.76,44.06,82.66,45.39,100.31,16.89.48,33.78.97,50.67,1.45,16.92-.5,33.84-.99,50.77-1.49,1.33-17.65,7.43-65.54,45.39-100.31,9.06-8.3,18.41-14.45,27.09-19.04,1.77,7.47,4.24,22.53-.73,40.27-6.99,24.93-24.11,38.82-30.02,43.2,9.85-2.64,45.98-13.61,70.29-49.79,18.26-27.18,20.3-54.39,20.5-65.89C327.67,117.63,288.87,58.82,250.06,0ZM125.46,190c-15.71-11.67-20.29-22.94-34.27-26.43-7.46-1.86-14.21-.67-18.62.57,1.39-3.77,6.1-15.05,18.35-22.9,10.64-6.81,21.09-7.27,25.28-7.23,11.78,23.2,23.55,46.41,35.33,69.61-12.07-4.18-20.55-9.51-26.08-13.62ZM219.91,297.42c-3.21-2.97-16.07-14.17-35.95-14.78-21.71-.66-36.04,11.79-38.97,14.45.76-8.27,1.18-17.54.96-27.65-.23-10.46-1.12-20-2.31-28.46,3.08,3.8,11.97,13.76,27.21,17.81,12.06,3.2,21.89,1.07,24.86.34,15.95-3.94,25.04-14.77,27.88-18.48-1.23,18.93-2.46,37.85-3.7,56.78ZM256.81,171.41c-8.32,6.21-10.36,13.54-21.83,21.96-7.8,5.73-15.48,8.66-20.77,10.25,11.77-23.2,23.55-46.41,35.33-69.61,4.21-.24,13.39-.18,23.04,5.06,14.56,7.89,19.5,21.73,20.59,25.07-19.06-2.15-29.92,2.46-36.36,7.27Z"/>
</svg>