<?xml version="1.0" encoding="UTF-8"?>
<svg id="Layer_1" xmlns="http://www.w3.org/2000/svg" viewBox="0 0 275.81 330.93">
  <defs>
    <style>
      .cls-1 {
        fill: #fff;
      }
    </style>
  </defs>
  <path class="cls-1" d="M272.26,155.22c-35.14-32.45-70.28-64.9-105.43-97.35-.18-19.29-.36-38.58-.54-57.86C112.03,54.62,57.77,109.25,3.51,163.87c-4.8,4.8-4.67,12.63.3,17.26l124.31,115.88v33.91l144.14-158.67c4.73-4.7,4.73-12.35,0-17.04ZM143.29,77.54c10.72,11,21.44,21.99,32.16,32.99-11.55,11.27-23.09,22.54-34.64,33.81-21.97-22.5-33.81-34.64-33.81-34.64,0,0,1.15-1.02,36.29-32.16ZM139.17,254.85l-92.37-89.07,39.59-35.46c18.14,17.32,36.29,34.64,54.43,51.96,16.77-15.94,33.54-31.89,50.31-47.83l34.64,29.69-86.59,90.72Z"/>
</svg>