<?xml version="1.0" encoding="UTF-8"?>
<svg id="Layer_1" xmlns="http://www.w3.org/2000/svg" viewBox="0 0 272.61 349.11">
  <defs>
    <style>
      .cls-1 {
        fill: #fff;
        stroke: #fff;
        stroke-miterlimit: 10;
      }
    </style>
  </defs>
  <path class="cls-1" d="M122.59.87c.69,12.59.16,31.66-7.07,53.02-11.64,34.39-41.71,77.87-70.69,75.4-16.35-1.4-26.23-16.9-35.93-11.78-7.25,3.82-8.03,15.79-8.25,22.38-2.1,64.29,18.85,105.44,18.85,105.44,19.17,37.67,69.39,111.63,112.51,102.5,17.31-3.67,14.85-16.78,54.78-50.07,33.13-27.62,42.3-24.82,58.91-45.36,22.94-28.37,33.53-68.46,21.21-79.53-10.15-9.11-29.98,6.73-44.77-5.3-9.52-7.74-5.67-17.85-15.9-27.69-11.89-11.42-30.14-10.35-35.93-10.01-38.1,2.23-79.96,43.97-73.63,80.7,2.67,15.48,14.79,35.3,32.99,37.11,22.6,2.25,43.99-24.32,40.06-36.52-3.18-9.85-21.91-7.4-25.33-18.85-2.49-8.32,4.65-18.82,12.37-23.56,15.47-9.5,41.15-.75,50.07,15.32,10.21,18.39-4.32,41.37-13.55,55.96-8.81,13.93-29.65,46.89-63.03,47.72-37.01.92-68.98-38.18-73.05-74.22-4.53-40.17,26.03-72.57,32.99-79.53,31.95-31.92,70.52-31.13,76.58-59.5,1.99-9.3-.47-17.29-2.95-25.33C154.81,19.89,130.41,5.17,122.59.87Z"/>
</svg>