<?xml version="1.0" encoding="UTF-8"?>
<svg id="Layer_1" xmlns="http://www.w3.org/2000/svg" viewBox="0 0 302.07 345.71">
  <defs>
    <style>
      .cls-1 {
        fill: #fff;
      }
    </style>
  </defs>
  <path class="cls-1" d="M0,137.56v109.04c33.04,33.03,66.08,66.07,99.12,99.1,8.71-.3,17.42-.6,26.13-.9v-44.3c-28.53-67.83-57.07-135.66-85.6-203.49-13.22,13.52-26.43,27.03-39.65,40.55Z"/>
  <path class="cls-1" d="M221.25,54.67c-6.18-9.49-16.9-23.39-33.93-35.82C173.72,8.93,160.65,3.28,151.04,0h0s0,0,0,0c0,0,0,0,0,0h0c-9.61,3.28-22.67,8.93-36.28,18.85-17.04,12.42-27.75,26.33-33.93,35.82,22.78,59.54,45.56,119.08,68.34,178.62h3.76c22.78-59.54,45.56-119.08,68.34-178.62Z"/>
  <path class="cls-1" d="M262.43,97.01c-28.53,67.83-57.07,135.66-85.6,203.49v44.3c8.71.3,17.42.6,26.13.9,33.04-33.03,66.08-66.07,99.12-99.1v-109.04c-13.22-13.52-26.43-27.03-39.65-40.55Z"/>
</svg>