<?xml version="1.0" encoding="UTF-8"?>
<svg id="Layer_1" xmlns="http://www.w3.org/2000/svg" viewBox="0 0 361.61 346.35">
  <defs>
    <style>
      .cls-1 {
        fill: #fff;
      }
    </style>
  </defs>
  <path id="Layer_1-2" data-name="Layer_1" class="cls-1" d="M66.72,103.63s-21.49-19.7-12.54-59.11C-8.51,117.96.44,186.92.44,189.61s17.91,157.63,143.3,156.73c125.39-.9,109.27-118.22,109.27-118.22,0,0-13.43-103.89-133.45-64.48,10.75-28.66,30.45-41.2,49.26-50.15,1.79-26.87,27.76-69.86,90.46-57.32-44.78,42.99-40.3,54.63-40.3,54.63,0,0,89.56,19.7,87.77,114.64-3.58,88.67-46.57,111.06-46.57,111.06,0,0,49.26-16.12,69.86-61.8,13.43,16.12,12.54,18.81,12.54,18.81,0,0,21.49-34.03,18.81-67.17-2.69-33.14-31.35-37.62-31.35-37.62,0,0,44.78-73.44-34.93-151.36C215.39-40.57,97.17,14.07,66.72,103.63Z"/>
</svg>